<mxfile host="app.diagrams.net" modified="2022-12-23T01:32:13.015Z" agent="5.0 (Windows NT 10.0; Win64; x64) AppleWebKit/537.36 (KHTML, like Gecko) Chrome/108.0.0.0 Safari/537.36 Edg/108.0.1462.54" etag="Q3MK9KTFjZMAxxxawyYA" version="20.7.4" type="github">
  <diagram id="C5RBs43oDa-KdzZeNtuy" name="Page-1">
    <mxGraphModel dx="489" dy="331" grid="1" gridSize="10" guides="1" tooltips="1" connect="1" arrows="1" fold="1" page="1" pageScale="1" pageWidth="1169" pageHeight="827" math="0" shadow="0">
      <root>
        <mxCell id="WIyWlLk6GJQsqaUBKTNV-0" />
        <mxCell id="WIyWlLk6GJQsqaUBKTNV-1" parent="WIyWlLk6GJQsqaUBKTNV-0" />
        <mxCell id="rcE6-SJgeqYsKWM5KjU5-1" style="edgeStyle=orthogonalEdgeStyle;rounded=0;orthogonalLoop=1;jettySize=auto;html=1;exitX=1;exitY=0.5;exitDx=0;exitDy=0;entryX=0;entryY=0.5;entryDx=0;entryDy=0;" edge="1" parent="WIyWlLk6GJQsqaUBKTNV-1" source="WIyWlLk6GJQsqaUBKTNV-3" target="rcE6-SJgeqYsKWM5KjU5-4">
          <mxGeometry relative="1" as="geometry">
            <mxPoint x="250" y="120" as="targetPoint" />
          </mxGeometry>
        </mxCell>
        <mxCell id="rcE6-SJgeqYsKWM5KjU5-5" value="" style="edgeStyle=orthogonalEdgeStyle;rounded=0;orthogonalLoop=1;jettySize=auto;html=1;" edge="1" parent="WIyWlLk6GJQsqaUBKTNV-1" source="WIyWlLk6GJQsqaUBKTNV-3" target="rcE6-SJgeqYsKWM5KjU5-4">
          <mxGeometry relative="1" as="geometry" />
        </mxCell>
        <mxCell id="WIyWlLk6GJQsqaUBKTNV-3" value="T铁打胶" style="rounded=1;whiteSpace=wrap;html=1;fontSize=12;glass=0;strokeWidth=1;shadow=0;" parent="WIyWlLk6GJQsqaUBKTNV-1" vertex="1">
          <mxGeometry x="80" y="100" width="120" height="40" as="geometry" />
        </mxCell>
        <mxCell id="rcE6-SJgeqYsKWM5KjU5-4" value="磁钢打胶" style="rounded=1;whiteSpace=wrap;html=1;fontSize=12;glass=0;strokeWidth=1;shadow=0;" vertex="1" parent="WIyWlLk6GJQsqaUBKTNV-1">
          <mxGeometry x="250" y="100" width="120" height="40" as="geometry" />
        </mxCell>
        <mxCell id="rcE6-SJgeqYsKWM5KjU5-6" value="放置盆架" style="rounded=1;whiteSpace=wrap;html=1;fontSize=12;glass=0;strokeWidth=1;shadow=0;" vertex="1" parent="WIyWlLk6GJQsqaUBKTNV-1">
          <mxGeometry x="420" y="100" width="120" height="40" as="geometry" />
        </mxCell>
        <mxCell id="rcE6-SJgeqYsKWM5KjU5-7" value="" style="endArrow=classic;html=1;rounded=0;exitX=1;exitY=0.5;exitDx=0;exitDy=0;entryX=0;entryY=0.5;entryDx=0;entryDy=0;" edge="1" parent="WIyWlLk6GJQsqaUBKTNV-1" source="rcE6-SJgeqYsKWM5KjU5-4" target="rcE6-SJgeqYsKWM5KjU5-6">
          <mxGeometry width="50" height="50" relative="1" as="geometry">
            <mxPoint x="390" y="330" as="sourcePoint" />
            <mxPoint x="440" y="280" as="targetPoint" />
          </mxGeometry>
        </mxCell>
        <mxCell id="rcE6-SJgeqYsKWM5KjU5-8" value="插入磁规定位" style="rounded=1;whiteSpace=wrap;html=1;glass=0;strokeWidth=1;shadow=0;" vertex="1" parent="WIyWlLk6GJQsqaUBKTNV-1">
          <mxGeometry x="590" y="90" width="120" height="60" as="geometry" />
        </mxCell>
        <mxCell id="rcE6-SJgeqYsKWM5KjU5-9" value="" style="endArrow=classic;html=1;rounded=0;exitX=1;exitY=0.5;exitDx=0;exitDy=0;entryX=0;entryY=0.5;entryDx=0;entryDy=0;" edge="1" parent="WIyWlLk6GJQsqaUBKTNV-1" source="rcE6-SJgeqYsKWM5KjU5-6" target="rcE6-SJgeqYsKWM5KjU5-8">
          <mxGeometry width="50" height="50" relative="1" as="geometry">
            <mxPoint x="390" y="330" as="sourcePoint" />
            <mxPoint x="440" y="280" as="targetPoint" />
          </mxGeometry>
        </mxCell>
        <mxCell id="rcE6-SJgeqYsKWM5KjU5-13" value="" style="endArrow=classic;html=1;rounded=0;exitX=1;exitY=0.5;exitDx=0;exitDy=0;" edge="1" parent="WIyWlLk6GJQsqaUBKTNV-1" source="rcE6-SJgeqYsKWM5KjU5-8" target="rcE6-SJgeqYsKWM5KjU5-14">
          <mxGeometry width="50" height="50" relative="1" as="geometry">
            <mxPoint x="490" y="220" as="sourcePoint" />
            <mxPoint x="605" y="190" as="targetPoint" />
          </mxGeometry>
        </mxCell>
        <mxCell id="rcE6-SJgeqYsKWM5KjU5-23" value="" style="edgeStyle=orthogonalEdgeStyle;rounded=0;orthogonalLoop=1;jettySize=auto;html=1;fontFamily=Helvetica;fontSize=12;fontColor=default;" edge="1" parent="WIyWlLk6GJQsqaUBKTNV-1" source="rcE6-SJgeqYsKWM5KjU5-14" target="rcE6-SJgeqYsKWM5KjU5-16">
          <mxGeometry relative="1" as="geometry" />
        </mxCell>
        <mxCell id="rcE6-SJgeqYsKWM5KjU5-14" value="磁路整形（线槽对正接线柱中芯）" style="rounded=1;whiteSpace=wrap;html=1;" vertex="1" parent="WIyWlLk6GJQsqaUBKTNV-1">
          <mxGeometry x="760" y="90" width="120" height="60" as="geometry" />
        </mxCell>
        <mxCell id="rcE6-SJgeqYsKWM5KjU5-16" value="摆放（注意移位）" style="rounded=1;whiteSpace=wrap;html=1;" vertex="1" parent="WIyWlLk6GJQsqaUBKTNV-1">
          <mxGeometry x="930" y="90" width="120" height="60" as="geometry" />
        </mxCell>
      </root>
    </mxGraphModel>
  </diagram>
</mxfile>
